<svg width="100" height="100" viewBox="0 0 100 100" fill="none" xmlns="http://www.w3.org/2000/svg">
<path d="M16.6667 20.8333H29.1667V16.6667C29.1667 14.4565 30.0446 12.3369 31.6074 10.7741C33.1702 9.21131 35.2899 8.33334 37.5 8.33334H62.5C64.7101 8.33334 66.8297 9.21131 68.3926 10.7741C69.9554 12.3369 70.8333 14.4565 70.8333 16.6667V20.8333H83.3333C84.4384 20.8333 85.4982 21.2723 86.2796 22.0537C87.061 22.8351 87.5 23.8949 87.5 25C87.5 26.1051 87.061 27.1649 86.2796 27.9463C85.4982 28.7277 84.4384 29.1667 83.3333 29.1667H79.1667V83.3333C79.1667 85.5435 78.2887 87.6631 76.7259 89.2259C75.1631 90.7887 73.0435 91.6667 70.8333 91.6667H29.1667C26.9565 91.6667 24.8369 90.7887 23.2741 89.2259C21.7113 87.6631 20.8333 85.5435 20.8333 83.3333V29.1667H16.6667C15.5616 29.1667 14.5018 28.7277 13.7204 27.9463C12.939 27.1649 12.5 26.1051 12.5 25C12.5 23.8949 12.939 22.8351 13.7204 22.0537C14.5018 21.2723 15.5616 20.8333 16.6667 20.8333ZM29.1667 29.1667V83.3333H70.8333V29.1667H29.1667ZM37.5 20.8333H62.5V16.6667H37.5V20.8333ZM37.5 37.5H45.8333V75H37.5V37.5ZM54.1667 37.5H62.5V75H54.1667V37.5Z" fill="white"/>
</svg>
